<svg width="96" height="98" viewBox="0 0 96 98" fill="none" xmlns="http://www.w3.org/2000/svg">
<g filter="url(#filter0_d)">
<path d="M76.2446 29.21C76.2446 40.3177 68.5193 58.7177 57.6551 66.4836H37.2393C26.3751 58.7177 18.6499 40.3177 18.6499 29.21C18.6499 14.8689 31.5434 3.23364 47.4404 3.23364C63.351 3.23364 76.2446 14.8689 76.2446 29.21Z" fill="white"/>
<path d="M45.1308 66.4864H49.7626C52.2254 58.7217 53.9766 40.3121 53.9766 29.2102C53.9766 14.8628 51.053 3.23193 47.4467 3.23193C43.8403 3.23193 40.9167 14.8628 40.9167 29.2102C40.9167 40.3121 42.6679 58.7217 45.1308 66.4864Z" fill="#DBFCFF"/>
<path d="M57.6913 71.3162H37.2021V85.2398C37.2021 87.0222 38.6471 88.4672 40.4296 88.4672H54.4638C56.2463 88.4672 57.6913 87.0222 57.6913 85.2398V71.3162Z" fill="white"/>
<path d="M70.9754 69.8964C68.8056 69.8964 67.0378 68.1286 67.0378 65.9588C67.0378 64.1079 68.3134 62.562 70.0257 62.1391C69.9425 61.7509 69.894 61.3488 69.894 60.9398C69.894 57.8688 72.3827 55.3801 75.4467 55.3801C77.5264 55.3801 79.3427 56.5239 80.2924 58.2224C80.9441 57.952 81.665 57.7995 82.4206 57.7995C85.0341 57.7995 87.2317 59.6088 87.8209 62.049C89.7758 62.2777 91.294 63.9415 91.294 65.9588C91.294 68.1286 89.5332 69.8964 87.3564 69.8964H70.9754Z" fill="#DBFCFF"/>
<path d="M9.40858 32.1716C6.81708 32.1716 4.70581 30.0602 4.70581 27.4687C4.70581 25.2581 6.22927 23.4118 8.27429 22.9068C8.17494 22.4431 8.11697 21.9629 8.11697 21.4744C8.11697 17.8066 11.0893 14.8342 14.7489 14.8342C17.2327 14.8342 19.402 16.2003 20.5363 18.2288C21.3145 17.9059 22.1756 17.7238 23.0781 17.7238C26.1995 17.7238 28.8241 19.8847 29.5278 22.7991C31.8627 23.0723 33.6759 25.0594 33.6759 27.4687C33.6759 30.0602 31.5729 32.1716 28.9731 32.1716H9.40858Z" fill="#DBFCFF"/>
<path d="M82.0547 74.9006C77.0743 80.868 70.595 85.4434 63.3176 88.1341C62.9668 88.2635 62.7878 88.6526 62.918 89.0028C63.0491 89.359 63.4452 89.5309 63.7867 89.4024C71.286 86.6305 77.9615 81.9157 83.0932 75.7673C83.333 75.4806 83.294 75.0539 83.0073 74.8147C82.7212 74.5749 82.2932 74.6139 82.0547 74.9006Z" fill="#4456DD"/>
<path d="M71.574 8.98631C73.0393 9.91051 74.4662 10.9318 75.8158 12.0218C76.1042 12.2553 76.5308 12.2123 76.7671 11.9201C77.0016 11.6301 76.956 11.204 76.6654 10.9688C75.2754 9.84643 73.8056 8.79407 72.2954 7.84212C71.9823 7.6446 71.5628 7.7384 71.3626 8.05352C71.1631 8.36929 71.2576 8.7868 71.574 8.98631Z" fill="#4456DD"/>
<path d="M89.8671 31.93C89.9914 32.2845 90.3787 32.4676 90.7292 32.3456C91.0819 32.222 91.2676 31.8362 91.1447 31.4835C89.0955 25.6231 85.9206 20.3171 81.7085 15.7113C81.4555 15.4351 81.0267 15.4179 80.7526 15.6683C80.4771 15.9207 80.4579 16.3487 80.7096 16.6242C84.7975 21.094 87.8786 26.2435 89.8671 31.93Z" fill="#4456DD"/>
<path d="M29.5219 86.8371C27.5559 85.9321 25.6381 84.8718 23.8221 83.686C23.509 83.4812 23.0902 83.5691 22.886 83.8822C22.6812 84.1947 22.7698 84.6142 23.0822 84.8183C24.9538 86.0411 26.9297 87.1337 28.9564 88.0659C29.2953 88.2219 29.6978 88.0738 29.8535 87.7342C30.0101 87.3947 29.8615 86.993 29.5219 86.8371Z" fill="#4456DD"/>
<path d="M5.6089 59.5477C5.49858 59.191 5.12203 58.9862 4.76332 59.0998C4.40592 59.2101 4.20576 59.5886 4.31542 59.9454C6.9123 68.3848 11.8861 75.8623 18.6997 81.57C18.9846 81.8089 19.411 81.7733 19.6529 81.4861C19.8927 81.1994 19.8551 80.7726 19.569 80.5328C12.9556 74.9929 8.12849 67.7367 5.6089 59.5477Z" fill="#4456DD"/>
<path d="M88.3569 61.4537C87.9886 60.2983 87.2938 59.3207 86.4049 58.5792C87.6061 54.7657 88.2909 50.7256 88.2909 46.5205C88.2909 33.1199 81.6858 21.2707 71.587 13.9497C66.2529 7.06743 57.4239 2.55518 47.447 2.55518C35.9161 2.55518 25.9339 8.58833 21.0956 17.3371C21.0056 17.3626 20.912 17.3735 20.8228 17.4025C16.5695 11.0465 6.47313 14.7373 7.50612 22.4377C5.43046 23.2166 4.0293 25.2037 4.0293 27.469C4.0293 30.4351 6.44253 32.8477 9.40869 32.8477H10.1108C8.56401 37.12 7.70959 41.721 7.70959 46.5205C7.70959 64.7524 19.8891 80.1607 36.5257 85.1201V85.2398C36.5257 87.3921 38.2769 89.1434 40.4299 89.1434H54.464C56.5394 89.1434 58.2258 87.5106 58.3449 85.4645C67.2333 83.0946 74.9177 77.7537 80.2777 70.5728H87.3567C89.9008 70.5728 91.9705 68.5031 91.9705 65.9584C91.9705 63.7745 90.4464 61.9128 88.3569 61.4537ZM75.5634 29.2104C75.5634 40.3087 67.8256 58.2471 57.4401 65.8098H55.5616C62.1364 57.5428 66.947 40.1422 66.947 29.2104C66.947 18.4598 62.2571 9.19792 55.5354 4.98649C67.1063 8.12161 75.5634 17.7895 75.5634 29.2104ZM57.0147 74.0569H37.8786V71.9925H57.0147V74.0569ZM52.6143 70.6396H42.279V67.1628H52.6143V70.6396ZM28.1296 32.8477C28.9942 43.6962 33.4379 58.4018 39.325 65.8098H37.4532C28.1308 59.0213 20.9839 43.9038 19.6114 32.8477H28.1296ZM29.4777 32.7967C32.2042 32.5377 34.3522 30.2622 34.3522 27.469C34.3522 24.8972 32.5395 22.7086 30.0648 22.2012C30.0607 22.1878 30.0537 22.1759 30.0495 22.1625C32.0098 12.7743 37.7544 5.62696 44.8284 4.19037C41.8324 8.19799 40.2403 18.956 40.2403 29.2104C40.2403 40.1822 41.9322 57.705 44.2327 65.8098C44.0862 65.8098 40.9098 65.8098 41.072 65.8098C35.0024 58.9581 30.3588 43.8449 29.4777 32.7967ZM53.3 29.2104C53.3 40.2565 51.5831 57.9974 49.2623 65.8098H45.6309C43.3102 57.9974 41.5932 40.2565 41.5932 29.2104C41.5932 14.2996 44.6783 3.90812 47.447 3.90812C50.2156 3.90812 53.3 14.2996 53.3 29.2104ZM50.6605 65.8098C52.961 57.705 54.653 40.1822 54.653 29.2104C54.653 18.9684 53.0648 8.22367 50.076 4.20465C58.8376 5.98997 65.5941 16.5069 65.5941 29.2104C65.5941 40.3028 60.5734 58.1876 53.8219 65.8098C53.617 65.8098 50.5243 65.8098 50.6605 65.8098ZM39.3666 4.97922C34.6195 7.96397 30.9062 13.4871 29.1308 20.2709C27.7998 18.2939 25.5266 16.9775 22.8384 17.0658C26.3561 11.3135 32.2643 6.90764 39.3666 4.97922ZM5.38224 27.469C5.38224 25.6133 6.63807 24.0074 8.43627 23.5634C8.79168 23.4762 9.01298 23.1221 8.93569 22.7647C7.47483 15.9814 16.6617 12.6831 19.9455 18.5593C20.1127 18.8592 20.48 18.9847 20.7957 18.8539C24.1219 17.4713 27.9971 19.3415 28.8704 22.9576C28.9365 23.2331 29.1677 23.4379 29.4491 23.4709C31.4733 23.7081 32.9993 25.427 32.9993 27.469C32.9993 29.6887 31.1932 31.4948 28.9728 31.4948H9.40869C7.18836 31.4948 5.38224 29.6887 5.38224 27.469ZM9.06253 46.5205C9.06253 41.7086 9.95577 37.1056 11.5595 32.8477H18.2562C19.6458 44.3104 27.1125 60.0805 36.8408 67.0366C36.9557 67.1185 37.0931 67.1628 37.2345 67.1628H40.7708H40.926V70.6396H37.2021C36.8282 70.6396 36.5257 70.9421 36.5257 71.316V83.7028C20.6464 78.7874 9.06253 63.9988 9.06253 46.5205ZM54.464 87.7905H40.4299C39.0228 87.7905 37.8786 86.6463 37.8786 85.2398V75.4099H57.0147V85.2398C57.0147 86.6463 55.8705 87.7905 54.464 87.7905ZM58.3676 84.034V71.316C58.3676 70.9421 58.065 70.6396 57.6911 70.6396H53.9672V67.1628C54.3813 67.1628 57.8651 67.1628 57.6588 67.1628C57.8001 67.1628 57.9375 67.1185 58.0525 67.0366C68.8489 59.3166 76.9164 40.6991 76.9164 29.2104C76.9164 25.0662 75.8647 21.1403 73.9911 17.6384C81.9181 24.7603 86.9379 35.0474 86.9379 46.5205C86.9379 50.4445 86.3199 54.2197 85.2343 57.7935C83.744 57.0415 82.0671 56.9377 80.5768 57.4008C77.1193 52.3758 69.2176 54.8395 69.2176 60.9397C69.2176 61.1809 69.2327 61.4266 69.2625 61.675C67.527 62.364 66.3617 64.0453 66.3617 65.9584C66.3617 68.5031 68.4314 70.5728 70.9754 70.5728H78.5331C73.4681 76.9939 66.4522 81.7892 58.3676 84.034ZM87.3567 69.2199H70.9754C69.1773 69.2199 67.7146 67.7566 67.7146 65.9584C67.7146 64.4562 68.7313 63.1555 70.1873 62.7961C70.5427 62.7089 70.7634 62.3548 70.6868 61.9974C70.6095 61.6374 70.5705 61.2813 70.5705 60.9397C70.5705 55.929 77.2581 54.1818 79.7015 58.5529C79.8687 58.8529 80.236 58.9797 80.5517 58.8476C83.2719 57.7159 86.4475 59.244 87.1638 62.2075C87.2299 62.4829 87.4611 62.6877 87.7425 62.7208C89.3815 62.9124 90.6175 64.3043 90.6175 65.9584C90.6175 67.7566 89.1549 69.2199 87.3567 69.2199Z" fill="#4456DD"/>
</g>
<defs>
<filter id="filter0_d" x="-2" y="0" width="100" height="100" filterUnits="userSpaceOnUse" color-interpolation-filters="sRGB">
<feFlood flood-opacity="0" result="BackgroundImageFix"/>
<feColorMatrix in="SourceAlpha" type="matrix" values="0 0 0 0 0 0 0 0 0 0 0 0 0 0 0 0 0 0 127 0"/>
<feOffset dy="4"/>
<feGaussianBlur stdDeviation="2"/>
<feColorMatrix type="matrix" values="0 0 0 0 0 0 0 0 0 0 0 0 0 0 0 0 0 0 0.25 0"/>
<feBlend mode="normal" in2="BackgroundImageFix" result="effect1_dropShadow"/>
<feBlend mode="normal" in="SourceGraphic" in2="effect1_dropShadow" result="shape"/>
</filter>
</defs>
</svg>
