<svg width="933" height="564" viewBox="0 0 933 564" fill="none" xmlns="http://www.w3.org/2000/svg">
<path d="M227.765 457.207L224.474 457.256C190.227 457.768 149.582 458.11 123.615 457.426C123.615 457.426 123.615 457.426 123.615 457.426L123.68 454.927C113.986 454.674 103.656 454.797 93.2893 454.921C47.8693 455.463 1.73765 456.014 5.1816 424.91C7.70785 402.114 40.3728 396.77 66.2816 396.201L227.765 457.207ZM227.765 457.207L226.835 454.05C220.713 433.274 215.281 411.254 210.202 390.665C208.474 383.659 206.787 376.818 205.127 370.249C202.554 359.489 202.124 358.074 200.793 353.691C200.232 351.844 199.511 349.47 198.403 345.647L198.027 344.354L196.741 343.956C161.768 333.121 127.03 343.47 108.556 367.139C107.342 368.666 106.174 370.272 105.118 371.953C100.758 378.77 97.6771 386.43 96.1542 394.827C94.8828 394.702 93.1411 394.543 91.0197 394.383C86.3559 394.032 79.8471 393.673 72.46 393.644H72.4503H72.4413C70.453 393.644 68.369 393.644 66.2207 393.702L227.765 457.207Z" fill="#4456DD" stroke="#D1DEFF" stroke-width="5"/>
<path d="M739.102 245.815C739.093 245.757 739.084 245.699 739.074 245.64C738.644 242.979 737.963 239.184 736.96 234.621C734.957 225.504 731.657 213.276 726.47 200.893C716.177 176.323 698.006 150.153 666.879 148.001L739.102 245.815ZM739.102 245.815C740.166 245.155 741.449 244.416 742.911 243.679C747.285 241.473 753.427 239.204 760.154 239.297C766.984 239.391 774.265 241.926 780.701 249.054C786.845 255.857 792.109 266.719 795.681 283.331C796.681 283.437 798.07 283.59 799.795 283.796C803.561 284.244 808.93 284.94 815.36 285.941C828.212 287.941 845.344 291.163 862.41 296.066C879.439 300.958 896.586 307.575 909.35 316.44C922.102 325.297 930.942 336.753 930.17 351.308C929.468 364.694 920.483 373.636 906.35 379.532C892.283 385.401 872.579 388.519 849.137 390.146C818.8 392.252 781.641 391.882 741.439 391.482C719.525 391.264 696.708 391.037 673.598 391.197L671.198 391.213L671.083 388.817C669.261 350.822 666.974 316.722 664.234 298.275L664.233 298.274C661.216 277.888 650.073 263.812 633.845 254.104C617.516 244.336 596.041 239.005 572.604 236.379L569.826 236.067L570.445 233.341C576.67 205.917 586.966 183.608 602.715 168.618C618.547 153.548 639.64 146.113 666.879 148.001L739.102 245.815Z" fill="#4456DD" stroke="#D1DEFF" stroke-width="5"/>
<path d="M283.245 561.178H285.373L285.713 559.078C287.144 550.252 287.919 541.136 287.919 531.788C287.919 471.047 256.253 419.559 213.122 407.664C207.029 405.955 200.694 405.071 194.239 405.071C164.011 405.071 137.389 424.329 120.402 453.672C107.886 475.228 100.5 502.329 100.5 531.788C100.5 541.192 101.275 550.309 102.707 559.081L103.049 561.178H105.174H283.245Z" fill="#56EAE3" stroke="#DBFCFF" stroke-width="5"/>
<path d="M761.294 561.178H763.417L763.761 559.083C764.957 551.793 765.615 544.267 765.615 536.507C765.615 507.76 756.832 481.638 742.522 462.647C728.213 443.654 708.262 431.677 686.035 431.677C663.808 431.677 643.858 443.654 629.548 462.647C615.239 481.638 606.455 507.76 606.455 536.507C606.455 544.267 607.114 551.793 608.309 559.083L608.653 561.178H610.776H761.294Z" fill="#56EAE3" stroke="#DBFCFF" stroke-width="5"/>
<path d="M900.062 561.178H902.245L902.539 559.015C904.023 548.1 904.794 536.788 904.794 525.137C904.794 482.009 894.279 442.847 877.147 414.376C860.044 385.954 836.07 367.807 809.119 367.777H809.117C782.192 367.777 758.247 385.928 741.166 414.356C724.056 442.834 713.557 482.01 713.557 525.137C713.557 536.796 714.388 548.104 715.81 559.002L716.094 561.178H718.289H900.062Z" fill="#4ABFB7" stroke="#A1DEDA" stroke-width="5"/>
<path d="M900.062 561.178H902.245L902.539 559.015C904.023 548.1 904.794 536.788 904.794 525.137C904.794 482.009 894.279 442.847 877.147 414.376C860.044 385.954 836.07 367.807 809.119 367.777H809.117C782.192 367.777 758.247 385.928 741.166 414.356C724.056 442.834 713.557 482.01 713.557 525.137C713.557 536.796 714.388 548.104 715.81 559.002L716.094 561.178H718.289H900.062Z" fill="#56EAE3" stroke="#DBFCFF" stroke-width="5"/>
<path d="M712.061 495.745C709.241 500.293 706.421 504.841 703.601 509.389C701.721 512.402 706.598 515.188 708.477 512.118C711.297 507.57 714.117 503.022 716.937 498.474C718.817 495.461 713.941 492.732 712.061 495.745Z" fill="white"/>
<path d="M204.168 558.678H198.528L188.599 468.912C188.423 467.434 189.539 466.07 191.125 465.899C192.711 465.729 194.063 466.809 194.239 468.344L204.168 558.678Z" fill="white"/>
<path d="M827.505 421.215L805.122 558.621H799.423L821.924 420.362C822.159 418.884 823.628 417.861 825.155 418.088C826.683 418.373 827.74 419.737 827.505 421.215Z" fill="white"/>
<path d="M788.025 494.495C786.968 494.495 785.91 493.926 785.44 492.903L771.34 462.886C770.694 461.522 771.34 459.873 772.75 459.248C774.16 458.622 775.864 459.248 776.51 460.612L790.61 490.629C791.256 491.993 790.61 493.642 789.2 494.267C788.789 494.438 788.436 494.495 788.025 494.495Z" fill="white"/>
<path d="M838.785 551.856C838.256 551.856 837.786 551.743 837.316 551.458C835.965 550.662 835.554 549.014 836.376 547.706L863.166 505.41C863.989 504.102 865.693 503.704 867.044 504.5C868.395 505.296 868.806 506.945 867.984 508.252L841.194 550.549C840.665 551.402 839.725 551.856 838.785 551.856Z" fill="white"/>
<path d="M147.65 545.034C146.828 545.034 146.005 544.693 145.477 544.011L132.787 529.003C131.788 527.809 131.964 526.103 133.198 525.137C134.373 524.17 136.194 524.341 137.193 525.535L149.883 540.543C150.882 541.737 150.705 543.443 149.472 544.409C148.943 544.807 148.297 545.034 147.65 545.034Z" fill="white"/>
<path d="M409.44 44.5269C404.623 57.0907 420.955 62.8894 430.12 64.8223C430.649 64.936 431.06 64.936 431.471 64.7655C431.589 64.8223 431.765 64.8792 431.883 64.936C441.929 46.9714 461.258 42.0823 490.809 48.7338C525.178 56.4654 526.118 77.3862 526.118 77.3862C528.35 74.6005 532.815 71.5306 538.396 69.1998C538.808 68.6881 539.16 68.1765 539.513 67.5511C539.513 67.4943 539.571 67.4374 539.571 67.4374C541.393 67.2669 542.979 65.6182 541.863 63.6853C531.699 45.3796 515.073 21.2752 494.51 12.634C488.107 9.9621 481.409 10.7011 477.884 17.1252C476.121 20.3088 476.004 23.6061 476.768 26.8465C467.309 19.6834 457.145 13.6005 446.159 8.82509C435.878 4.27709 420.779 -2.9997 409.264 1.3209C400.863 4.44765 397.573 13.2025 399.159 21.5026C400.686 29.5753 406.561 35.3172 413.259 39.8652C411.614 40.7748 410.263 42.3666 409.44 44.5269Z" fill="#2F2F41"/>
<path d="M422.6 165.674C430.062 179.432 445.865 183.184 462.315 183.184L463.255 235.77C463.255 235.77 467.192 252.825 500.327 246.174C520.184 242.194 522.182 231.848 522.182 231.848C522.182 231.848 520.772 210.017 519.303 161.752C532.639 152.542 537.28 126.789 537.28 126.789C564.599 123.492 589.509 106.778 579.052 80.854C571.649 62.4915 551.909 63.5716 538.397 69.1998C532.874 71.5306 528.35 74.6005 526.118 77.3862C526.118 77.3862 525.178 56.4654 490.809 48.7338C461.258 42.0823 441.929 47.0283 431.883 64.936C428.182 71.4738 425.773 79.7739 424.539 89.7795C420.779 120.251 415.08 151.689 422.6 165.674Z" fill="white"/>
<path d="M486.226 250.381C464.019 250.381 460.67 236.964 460.494 236.282C460.435 236.111 460.435 235.941 460.435 235.713L459.554 185.799C439.638 185.344 426.771 179.091 420.133 166.868C413.259 154.134 416.549 129.006 420.074 102.4C420.661 98.0796 421.249 93.7021 421.778 89.3815C423.129 78.8074 425.596 70.3368 429.474 63.5148C439.99 44.6406 460.318 38.8988 491.514 45.9482C517.188 51.7469 525.236 64.5949 527.821 71.8717C530.406 69.9388 533.638 68.0628 537.28 66.5279C542.391 64.4244 555.493 59.9901 567.36 64.8224C573.999 67.4943 578.816 72.4971 581.695 79.717C585.631 89.5521 585.102 98.9892 580.109 107.119C573.235 118.318 558.195 126.448 539.689 129.063C538.338 135.26 533.403 154.134 522.181 162.889C523.591 209.619 525.001 231.279 525.001 231.507C525.001 231.734 525.001 231.961 524.943 232.189C524.825 232.7 522.358 244.412 500.855 248.675C495.215 249.926 490.398 250.381 486.226 250.381ZM466.016 235.316C466.604 237.078 471.598 249.016 499.68 243.445C515.601 240.261 518.774 233.042 519.244 231.507C519.068 228.152 517.716 205.81 516.365 161.752C516.365 160.842 516.776 159.989 517.54 159.421C529.819 150.95 534.343 126.505 534.401 126.22C534.636 125.027 535.576 124.117 536.81 124.003C554.259 121.9 568.946 114.396 575.115 104.39C579.227 97.6817 579.639 90.0638 576.29 81.7637C573.94 76.0218 570.18 72.0423 565.01 69.9389C558.195 67.1532 548.56 67.7786 539.395 71.6444C534.46 73.691 530.23 76.5334 528.233 78.978C527.528 79.8876 526.294 80.2856 525.119 79.9445C524.003 79.6034 523.18 78.58 523.121 77.443C523.063 76.704 521.653 58.4552 489.986 51.3489C461.199 44.868 443.456 49.5865 434.174 66.1867C430.708 72.3265 428.358 80.3424 427.124 90.0637C426.595 94.3843 426.008 98.7618 425.42 103.082C422.189 127.698 418.781 153.11 424.833 164.31C430.649 175.111 442.751 180.342 461.786 180.342C461.845 180.342 461.963 180.342 462.021 180.342C463.549 180.342 464.841 181.535 464.841 183.014L466.016 235.316Z" fill="#2F2F41"/>
<path d="M452.974 130.996C452.093 130.996 451.212 130.598 450.683 129.859C440.343 115.76 446.629 100.126 461.023 77.9548C461.845 76.7041 463.608 76.3061 464.9 77.102C466.193 77.8979 466.604 79.6034 465.782 80.8541C450.507 104.447 447.745 116.442 455.265 126.732C456.147 127.983 455.853 129.688 454.619 130.541C454.149 130.825 453.562 130.996 452.974 130.996Z" fill="#2F2F41"/>
<path d="M503.258 89.8974C505.175 89.5707 506.455 87.802 506.118 85.9467C505.78 84.0915 503.952 82.8524 502.035 83.179C500.118 83.5057 498.837 85.2745 499.175 87.1297C499.513 88.9849 501.34 90.224 503.258 89.8974Z" fill="#2F2F41"/>
<path d="M445.035 88.7035C446.952 88.3768 448.233 86.6081 447.895 84.7529C447.557 82.8977 445.729 81.6585 443.812 81.9852C441.895 82.3119 440.614 84.0806 440.952 85.9358C441.29 87.791 443.118 89.0302 445.035 88.7035Z" fill="#2F2F41"/>
<path d="M479 145.322C486.285 145.89 492.043 140.262 491.103 133.213C490.633 129.745 496.214 128.779 496.684 132.246C498.094 142.821 489.575 151.632 478.53 150.723C474.888 150.438 475.417 144.981 479 145.322Z" fill="#2F2F41"/>
<path d="M498.329 68.7449C498.916 67.2668 500.503 66.6983 501.971 67.1531C503.499 67.5511 505.026 68.0059 506.495 68.4038C507.964 68.8018 508.669 70.621 508.14 71.9285C507.553 73.4066 505.966 73.9751 504.498 73.5203C502.97 73.1224 501.443 72.6676 499.974 72.2696C498.505 71.8148 497.8 70.0525 498.329 68.7449Z" fill="#2F2F41"/>
<path d="M446.335 64.2538L449.801 63.6853C453.385 63.06 454.384 68.4607 450.8 69.0861L447.334 69.6546C443.75 70.2231 442.751 64.8223 446.335 64.2538Z" fill="#2F2F41"/>
<path d="M535.165 106.266C534.872 106.266 534.637 106.209 534.343 106.152C532.874 105.698 531.993 104.219 532.463 102.741C534.578 95.8625 546.152 82.9575 558.137 82.9575C558.254 82.9575 558.372 82.9575 558.489 82.9575C560.017 83.0144 561.309 84.2651 561.25 85.7432C561.192 87.2781 559.782 88.5288 558.372 88.4151C558.313 88.4151 558.195 88.4151 558.137 88.4151C548.913 88.4151 539.337 99.6714 537.927 104.276C537.515 105.47 536.399 106.266 535.165 106.266Z" fill="#2F2F41"/>
<path d="M363.439 434.461C362.675 434.461 361.853 434.12 361.324 433.552C353.922 425.365 318.672 424.569 305.688 424.91H305.629C304.102 424.91 302.868 423.716 302.809 422.238C302.75 420.76 303.984 419.453 305.57 419.453C310.623 419.339 355.155 418.373 365.613 429.913C366.612 431.05 366.494 432.756 365.319 433.779C364.79 434.234 364.144 434.461 363.439 434.461Z" fill="#2F2F41"/>
<path d="M299.636 552.425C286.241 552.425 273.434 548.616 262.918 539.804C248.23 527.524 235.129 500.748 221.734 455.552C215.565 434.632 210.219 412.915 204.99 391.88C203.286 384.888 201.583 378.123 199.938 371.585C197.353 360.67 197 359.59 195.59 354.985C195.061 353.165 194.356 350.835 193.299 347.196C192.476 344.467 191.536 341 190.244 336.452C183.723 313.37 174.851 291.938 168.976 277.782C166.861 272.723 165.216 268.686 164.276 266.071C163.395 263.854 160.928 258.51 158.049 252.314C148.766 232.302 140.424 213.826 139.66 207.516C139.073 202.456 141.129 199.955 142.891 198.761C145.535 196.999 149.001 197.055 151.704 197.51C151.645 196.942 151.645 196.487 151.645 196.032C151.586 191.711 153.878 188.3 157.873 186.595C160.223 185.572 162.984 185.231 165.451 185.515C165.686 181.251 168.154 177.613 172.384 175.85C180.785 172.326 186.19 179.204 199.291 200.068C194.356 187.448 191.478 177.044 194.474 171.018C195.649 168.63 197.705 166.982 200.466 166.243C211.1 163.286 220.441 184.548 232.368 214.906C236.069 224.23 239.535 233.098 241.826 236.737C244.47 236.566 251.52 234.747 254.986 221.103C261.566 195.577 264.798 190.29 273.434 191.143C281.835 192.053 280.954 204.616 279.426 225.48C278.016 244.582 276.136 270.676 281.189 295.406C282.481 301.659 284.42 311.551 286.77 323.49C295.289 366.866 309.565 439.407 316.733 460.953C317.203 462.374 316.38 463.909 314.911 464.364C313.443 464.819 311.856 464.023 311.386 462.602C304.16 440.714 289.825 367.946 281.306 324.456C278.956 312.518 277.018 302.626 275.725 296.372C270.496 270.96 272.435 244.411 273.845 225.026C274.726 213.144 275.901 196.828 272.905 196.487C269.791 196.146 267.324 195.918 260.509 222.354C254.928 244.127 240.534 242.137 239.888 242.024C239.183 241.91 238.595 241.569 238.125 241.057C235.305 237.703 231.721 228.493 227.08 216.782C221.029 201.49 208.574 169.654 201.994 171.416C200.819 171.757 200.055 172.326 199.526 173.292C196.413 179.489 203.874 196.828 211.041 213.599C213.215 218.715 215.448 224.002 217.504 229.119C218.033 230.426 217.445 231.904 216.094 232.53C214.801 233.155 213.215 232.7 212.451 231.506C207.458 223.661 203.169 216.782 199.468 210.813C184.251 186.368 179.199 178.75 174.616 180.683C171.561 181.99 170.328 185.06 171.503 188.642C171.855 189.835 171.385 191.086 170.328 191.768C169.27 192.451 167.86 192.28 166.92 191.484C166.274 190.859 162.984 190.233 160.164 191.484C158.225 192.337 157.285 193.758 157.285 195.805C157.344 196.999 157.403 198.704 157.814 200.58C158.049 201.603 157.638 202.684 156.756 203.309C155.875 203.934 154.7 204.048 153.76 203.593C152.585 203.081 147.944 201.888 146.064 203.138C145.065 203.821 145.065 205.469 145.241 206.777C145.946 212.746 156.698 235.998 163.16 249.926C166.156 256.464 168.565 261.58 169.505 264.025C170.445 266.64 172.09 270.619 174.146 275.622C180.08 289.891 189.01 311.494 195.59 334.917C196.883 339.465 197.881 342.932 198.645 345.661C199.703 349.3 200.408 351.574 200.936 353.393C202.346 357.998 202.699 359.248 205.343 370.277C206.988 376.758 208.691 383.58 210.395 390.573C215.565 411.55 220.911 433.21 227.08 454.017C240.123 498.19 252.636 524.113 266.501 535.654C293.056 557.825 336.061 544.807 362.323 519.395C363.439 518.315 365.201 518.315 366.318 519.395C367.434 520.475 367.434 522.181 366.318 523.261C348.516 540.6 323.136 552.425 299.636 552.425Z" fill="#2F2F41"/>
<path d="M241.239 237.76C244.588 236.509 247.232 241.342 243.824 242.592C226.552 249.073 217.622 265.673 222.145 283.126C223.027 286.537 217.504 287.674 216.623 284.263C211.512 264.707 221.675 245.094 241.239 237.76Z" fill="#2F2F41"/>
<path d="M196.06 241.398C195.062 241.398 194.063 240.887 193.593 239.977L166.333 190.802C165.569 189.494 166.098 187.846 167.508 187.107C168.859 186.368 170.622 186.879 171.327 188.244L198.587 237.362C199.35 238.67 198.822 240.318 197.412 241.057C197 241.285 196.53 241.398 196.06 241.398Z" fill="#2F2F41"/>
<path d="M180.08 251.404C179.082 251.404 178.083 250.892 177.613 249.983L150.353 200.864C149.589 199.557 150.118 197.908 151.528 197.169C152.879 196.43 154.642 196.942 155.347 198.306L182.607 247.425C183.37 248.732 182.842 250.381 181.432 251.12C181.02 251.29 180.55 251.404 180.08 251.404Z" fill="#2F2F41"/>
<path d="M144.478 266.526C140.248 259.704 136.018 252.882 131.788 246.06C129.908 243.047 125.032 245.776 126.912 248.789C131.142 255.611 135.372 262.433 139.602 269.255C141.482 272.325 146.358 269.539 144.478 266.526Z" fill="#2F2F41"/>
<path d="M301.517 207.175C300.224 215.361 298.932 223.604 297.639 231.791C297.11 235.202 302.515 236.737 303.103 233.269C304.395 225.082 305.688 216.839 306.98 208.653C307.45 205.185 302.045 203.707 301.517 207.175Z" fill="#2F2F41"/>
<path d="M305.629 433.097C304.16 433.097 302.926 432.016 302.809 430.538C302.75 429.913 298.638 368.231 304.219 312.688C309.683 258.226 333.946 233.78 463.196 232.928C464.724 232.928 466.016 234.122 466.016 235.657C466.016 237.192 464.783 238.385 463.196 238.385C337.53 239.181 315.029 261.125 309.8 313.2C304.219 368.288 308.331 429.515 308.39 430.14C308.508 431.618 307.333 432.926 305.746 433.04C305.746 433.097 305.688 433.097 305.629 433.097Z" fill="#2F2F41"/>
<path d="M679.396 561.407C677.869 561.407 676.635 560.213 676.576 558.735C676.576 557.826 674.638 469.538 670.76 388.867C668.645 345.32 666.354 314.906 663.945 298.362C658.716 263.172 628.871 242.99 572.589 236.68C558.019 235.031 541.51 234.349 522.181 234.52C520.654 234.52 519.361 233.326 519.361 231.791C519.361 230.256 520.595 229.062 522.181 229.062C541.745 228.891 558.489 229.574 573.294 231.279C632.455 237.931 663.945 259.647 669.585 297.623C672.053 314.337 674.344 344.979 676.459 388.64C680.336 469.367 682.275 557.769 682.275 558.621C682.275 560.1 681.041 561.35 679.396 561.407C679.455 561.407 679.455 561.407 679.396 561.407Z" fill="#2F2F41"/>
<path d="M608.897 561.407C607.428 561.407 606.135 560.27 606.077 558.792L594.797 349.982C594.738 348.504 595.913 347.196 597.44 347.14C598.968 347.026 600.319 348.22 600.378 349.698L611.658 558.508C611.717 559.986 610.542 561.294 609.014 561.35C609.014 561.407 608.955 561.407 608.897 561.407Z" fill="#2F2F41"/>
<path d="M364.849 561.407C363.321 561.407 362.029 560.213 362.029 558.735L359.209 345.832C359.209 344.297 360.443 343.103 361.97 343.046C363.556 343.046 364.79 344.24 364.849 345.718L367.669 558.622C367.728 560.157 366.494 561.35 364.849 561.407C364.908 561.407 364.908 561.407 364.849 561.407Z" fill="#2F2F41"/>
<path d="M640.21 441.965C628.519 441.965 615.711 440.032 601.259 437.133C599.731 436.849 598.733 435.371 599.085 433.892C599.379 432.414 600.906 431.448 602.434 431.789C631.339 437.701 653.135 439.293 672.464 429.344C673.815 428.605 675.519 429.117 676.283 430.481C676.988 431.789 676.518 433.438 675.108 434.177C664.239 439.748 652.841 441.965 640.21 441.965Z" fill="#2F2F41"/>
<path d="M457.968 221.558L445.278 236.566L477.708 277.498L491.808 246.117L457.968 221.558Z" fill="white"/>
<path d="M477.708 280.227C476.826 280.227 476.004 279.829 475.475 279.147L443.045 238.215C442.223 237.192 442.281 235.827 443.104 234.804L455.794 219.796C456.734 218.659 458.438 218.488 459.671 219.341L493.511 243.9C494.569 244.639 494.921 246.004 494.393 247.197L480.293 278.579C479.881 279.488 479.059 280.057 478.06 280.227C477.943 280.227 477.825 280.227 477.708 280.227ZM448.861 236.623L477.003 272.154L488.283 246.97L458.438 225.31L448.861 236.623Z" fill="#2F2F41"/>
<path d="M491.808 246.117L511.548 276.134L536.928 232.473L524.238 216.1L491.808 246.117Z" fill="white"/>
<path d="M511.548 278.863C510.608 278.863 509.668 278.408 509.139 277.612L489.399 247.595C488.694 246.515 488.87 245.037 489.81 244.184L522.24 214.167C522.828 213.656 523.65 213.371 524.414 213.428C525.236 213.485 525.941 213.883 526.411 214.508L539.101 230.881C539.748 231.734 539.865 232.928 539.278 233.837L513.898 277.498C513.428 278.351 512.488 278.863 511.489 278.863C511.606 278.863 511.606 278.863 511.548 278.863ZM495.45 246.515L511.43 270.79L533.579 232.644L523.885 220.137L495.45 246.515Z" fill="#2F2F41"/>
<path d="M491.808 348.447C490.222 348.447 488.988 347.253 488.988 345.718V246.117C488.988 244.582 490.222 243.388 491.808 243.388C493.394 243.388 494.628 244.582 494.628 246.117V345.775C494.628 347.253 493.394 348.447 491.808 348.447Z" fill="#2F2F41"/>
<path d="M361.794 244.071C360.619 245.264 359.268 246.288 357.858 247.254C356.565 248.107 355.096 248.732 353.628 249.073V345.775C353.628 353.336 359.914 359.419 367.728 359.419C375.541 359.419 381.828 353.336 381.828 345.775V244.071H361.794Z" fill="#2F2F41"/>
<path d="M599.144 236.566H579.228V345.775C579.228 353.336 585.514 359.419 593.328 359.419C601.141 359.419 607.427 353.336 607.427 345.775V239.636C604.431 239.352 601.611 238.272 599.144 236.566Z" fill="#2F2F41"/>
<path d="M363.439 358.509V424.001C363.439 427.525 369.079 427.525 369.079 424.001V358.509C369.079 354.985 363.439 354.985 363.439 358.509Z" fill="#2F2F41"/>
<path d="M591.272 358.225L594.562 423.66C594.738 427.184 600.378 426.9 600.202 423.375L596.912 357.941C596.735 354.416 591.095 354.701 591.272 358.225Z" fill="#2F2F41"/>
</svg>
